PathFileType	4	(X/Y/Z)	52_2_72_p0_0-456_filt_butterworth.trc
DataRate	CameraRate	NumFrames	NumMarkers	Units	OrigDataRate	OrigDataStartFrame	OrigNumFrames
59.0	59.0	4	27	m	59.0	0	456
Frame#	Time	RHip			RKnee			RAnkle			RBigToe			RSmallToe			RHeel			LHip			LKnee			LAnkle			LBigToe			LSmallToe			LHeel			Neck			Head			Nose			RShoulder			RElbow			RWrist			RThumb			RIndex			RPinky			LShoulder			LElbow			LWrist			LThumb			LIndex			LPinky			
		X1	Y1	Z1	X2	Y2	Z2	X3	Y3	Z3	X4	Y4	Z4	X5	Y5	Z5	X6	Y6	Z6	X7	Y7	Z7	X8	Y8	Z8	X9	Y9	Z9	X10	Y10	Z10	X11	Y11	Z11	X12	Y12	Z12	X13	Y13	Z13	X14	Y14	Z14	X15	Y15	Z15	X16	Y16	Z16	X17	Y17	Z17	X18	Y18	Z18	X19	Y19	Z19	X20	Y20	Z20	X21	Y21	Z21	X22	Y22	Z22	X23	Y23	Z23	X24	Y24	Z24	X25	Y25	Z25	X26	Y26	Z26	X27	Y27	Z27	
0	0.0	0.2335775708944816	0.5388671405760406	0.477443023002691	0.14119534529123318	0.6544930727622977	0.8928093434736433	0.04173254659902797	0.7956928141620137	1.2740924776461893	0.019203443676961203	0.6169839868758072	1.3184901837165044	0.08786042647214248	0.6226753276916617	1.3296621057164764	0.009621283358217044	0.8914093851358348	1.3220965848673807	0.05060952314682017	0.5122081456790342	0.44635065517894723	-0.0557811350896538	0.6740285503904822	0.8523309461756479	-0.12962650644742024	0.7927409150735207	1.2389246888633851	-0.14042787747415192	0.5773427239636348	1.26089537780716	-0.19069559690216012	0.6368066315119161	1.2559132897179144	-0.13060632232381897	0.8655765421153837	1.3055202660255034	0.24648083318740632	0.44084046140775346	0.013167162196046097	0.2908898768004544	0.3455164360300517	-0.20596338029608588	0.25770875314551617	0.2938752160006458	-0.07091649319569905	0.36600581678181254	0.45396267252313344	0.11764982570248983	0.3584057035406747	0.5717972421008943	0.37862249481595656	0.29551217452366274	0.5027521656534779	0.5998474217450371	0.22785565103875935	0.43489206703151884	0.6793163923808795	0.24043292960740575	0.4612005590792305	0.6988078164212054	0.2614643113574379	0.519856853782732	0.7079278571485879	0.08168563671448315	0.4805158365338439	0.05497422375937685	-0.02122896856171814	0.5378952671319884	0.2774975408252783	-0.06985005815387539	0.503329880859867	0.4952506470652849	-0.054859437147550115	0.49006288469789727	0.5967724766665061	-0.08961394455166821	0.49384861315708084	0.6418793573452242	-0.11672724472760503	0.553019919068404	0.6033003966839758
1	0.0169491525423728	0.23443266432329765	0.541973449604751	0.47781379180358136	0.14112476545068778	0.6544069428399136	0.8928379445152023	0.041659667777334874	0.7958081230085814	1.2740384272808347	0.019260000583567225	0.6168834716529096	1.3183731264500553	0.0877972030979836	0.622517593702153	1.3296110813860629	0.004664067163896803	0.8978979209085434	1.325059532289741	0.05104681090115555	0.5120257837151762	0.44397561008477	-0.0562947211945396	0.6740739098791195	0.8535673123222342	-0.12940189929959073	0.7953353339448774	1.239420830030302	-0.14048730230434955	0.5774848469392108	1.2608548163806699	-0.19070003905081317	0.637007259067742	1.2559421017761885	-0.12947474859927433	0.8756906845429966	1.307429775651145	0.24652682262508602	0.44082884063611183	0.013108369640758897	0.29185035838024276	0.3425844201939643	-0.20553663210747933	0.25747028273379385	0.29374641775499444	-0.07019717175894924	0.36603615133497125	0.4542051810839251	0.11769731053969708	0.3580167969219874	0.5719295827652897	0.3799383384619711	0.29637126793284463	0.5031145826802048	0.59780067852487	0.22783457844430316	0.4352444775821832	0.6792814604060946	0.24127229409731235	0.4657482264864117	0.6993889512042651	0.261690383263638	0.5198965337265843	0.7078621972977465	0.08418536491761618	0.4818118272273285	0.055474654278752006	-0.018183557515903503	0.5294151104043899	0.2790782067530065	-0.06974379530192254	0.4965032474718751	0.4971160061881894	-0.054628760315506585	0.4900017654049861	0.5966461313388665	-0.0901620464185859	0.4941152032023741	0.6437898859163795	-0.11698266573243568	0.5538200207789308	0.6034350460753088
2	0.0338983050847457	0.23455654810034193	0.5420676834116026	0.47777856960347337	0.14107077875424054	0.6543535080690741	0.8928654067655402	0.04159896113830737	0.7958889302070835	1.2739974359827513	0.01928231341344271	0.616855556691941	1.3183160782584498	0.08774799521140174	0.6225573073469964	1.3296394448088398	0.0013544120599825909	0.9000172388883144	1.3267881059043767	0.051257049229914614	0.5118718765244518	0.4425577593208388	-0.05651136770886374	0.6740691724197666	0.8540897442683142	-0.12927927899349365	0.7969915401094778	1.2398021659599918	-0.14052588285689077	0.5777747533237236	1.2609628489672433	-0.19071246528385732	0.6371640718008708	1.2559669757470984	-0.12865680084768694	0.8820185234861002	1.3079146458621203	0.24655808142785843	0.44080462211125926	0.013066814306609022	0.2919723296353318	0.3424359054011534	-0.20558297074929838	0.2574227283045072	0.29372590780893454	-0.07016220580804008	0.36605306056368736	0.4543377120177129	0.11772029595721124	0.35763050326904516	0.572049800261244	0.38122116810431467	0.29691933689139033	0.5033483505403921	0.5967436051636404	0.22779579459830826	0.4355272863352069	0.6792766877997712	0.24093107664635777	0.46922549291803306	0.6995633145415037	0.2616889484846413	0.5198300270489788	0.7079294558430964	0.08567785863186836	0.4825809170415156	0.055768203215718695	-0.01641884383361527	0.5245775954932386	0.2805578958940331	-0.06915670297496586	0.49256760400442345	0.4983831839844973	-0.05448151158604383	0.49001240982314065	0.5965924765749054	-0.09040314068373162	0.4942525803806344	0.6446795379327457	-0.11691101049665598	0.5538568783004694	0.6035810430185035
3	0.0508474576271186	0.23417458395944674	0.5401785574146762	0.47748731640445397	0.14105185998720657	0.6543435980157141	0.8928657583955278	0.041552024911425324	0.7959384479806949	1.2739725549451046	0.01926149225168978	0.6168923957682003	1.3183256931422787	0.08769467325362533	0.6227567335982507	1.3297556633282102	4.8027430072673566e-05	0.8986878493620649	1.3272408969420577	0.05136560284278646	0.5117773271778177	0.44214257088832937	-0.05635343974893614	0.6740263889021144	0.8537033325798091	-0.12925513614363765	0.7975939668345494	1.240030730833221	-0.14053764776645875	0.5782116758919893	1.2612250352543963	-0.19072931866272666	0.6372701990338706	1.2559866886282025	-0.12824371978941257	0.8842199319702752	1.3073131667774471	0.24657147942819505	0.4407759304933916	0.013044907769426316	0.2915138760877875	0.34415281326992164	-0.2059338107933008	0.2575097449199509	0.29379716975659276	-0.0705866510889955	0.36605052585718767	0.45433103293445654	0.11771710820935878	0.357373428488771	0.5721476941346391	0.3820540635409909	0.2969565942242947	0.5033605433228567	0.5967401198908289	0.22773838597555604	0.43572793531697496	0.6793032702894063	0.23937243401722974	0.47216787948529043	0.6996537806170005	0.26127881876343123	0.5197211425186572	0.7081885704151145	0.08608999421124987	0.4827836533921659	0.055850072262580784	-0.01594268790148931	0.5234071558454456	0.28160389386308743	-0.06841749953827463	0.49164721333986494	0.4989650005257763	-0.05444528952396009	0.49014302747859656	0.5966617511707473	-0.0901755990007369	0.4941029081349768	0.6437577720884707	-0.11606635922431036	0.5520913908028463	0.6035919664157537
